<?xml version="1.0" encoding="utf-8"?>
<!-- Generator: Adobe Illustrator 15.0.2, SVG Export Plug-In . SVG Version: 6.00 Build 0)  -->
<!DOCTYPE svg PUBLIC "-//W3C//DTD SVG 1.1//EN" "http://www.w3.org/Graphics/SVG/1.1/DTD/svg11.dtd">
<svg version="1.1" id="Capa_1" xmlns="http://www.w3.org/2000/svg" xmlns:xlink="http://www.w3.org/1999/xlink" x="0px" y="0px"
	 width="131.746px" height="40px" viewBox="0 0 131.746 40" enable-background="new 0 0 131.746 40" xml:space="preserve">
<path fill="#FFD100" d="M27.826,40H0V0h27.826V40z M23.478,4.348H4.348v31.306h19.13V4.348z"/>
<path fill="#FFD100" d="M47.058,0h1.719c0.02,0.197,0.054,0.39,0.103,0.581c1.167,3.773,2.346,7.542,3.487,11.322
	c-0.745,0.009-1.492,0.037-2.234-0.029c-0.265-1.067-0.582-2.121-0.872-3.18c-1.159-0.012-2.317-0.011-3.475,0
	c-0.315,1.067-0.668,2.124-0.968,3.196c-0.57,0.024-1.142,0.034-1.712,0.015C44.384,7.924,45.746,3.97,47.058,0 M47.209,4.108
	c-0.254,1.036-0.622,2.041-0.864,3.078c0.87-0.006,1.743,0.046,2.612-0.033c-0.461-1.573-0.873-3.16-1.27-4.751
	C47.445,2.944,47.375,3.542,47.209,4.108z"/>
<path fill="#FFD100" d="M51.468,0h8.026c0.007,0.542-0.004,1.085-0.02,1.627c-1.001-0.007-2.003-0.034-3.002,0.011
	c0.006,3.425,0.012,6.852-0.004,10.276c-0.662,0.018-1.325,0.017-1.985-0.009c0.003-3.426,0.006-6.853-0.001-10.279
	c-1.004-0.02-2.01-0.006-3.015-0.009C51.465,1.079,51.463,0.539,51.468,0z"/>
<path fill="#FFD100" d="M33.482,0.178c0.491-0.037,0.983-0.049,1.475-0.026c1.596,2.279,3.146,4.593,4.629,6.947
	c0.321,0.486,0.577,1.02,0.968,1.458c-0.001-2.804-0.011-5.609,0.004-8.412c0.524-0.017,1.05-0.012,1.574,0.012
	c0.005,3.965,0.008,7.929-0.001,11.894c-0.46,0.006-0.925,0.047-1.384-0.012c-0.219-0.145-0.325-0.403-0.477-0.608
	c-1.675-2.455-3.346-4.919-4.874-7.47c-0.085-0.125-0.177-0.246-0.276-0.36c-0.035,2.817-0.003,5.637-0.017,8.455
	c-0.54,0.01-1.083,0.036-1.62-0.04C33.508,8.07,33.513,4.125,33.482,0.178z"/>
<path fill="#FFD100" d="M67.05,0.844c1.533-0.669,3.396-0.528,4.779,0.428c-0.158,0.445-0.358,0.872-0.529,1.313
	c-0.502-0.055-0.937-0.356-1.438-0.433c-1.079-0.233-2.282,0.105-3.01,0.958c-0.913,1.055-1.118,2.537-0.985,3.884
	c0.108,1.227,0.663,2.497,1.726,3.184c0.801,0.528,1.842,0.528,2.717,0.19c0.012-1.178,0-2.356,0.008-3.533
	c0.644-0.008,1.291-0.055,1.935,0.034c-0.024,1.553-0.021,3.106-0.006,4.659c-1.688,0.743-3.728,1.063-5.438,0.22
	c-1.413-0.662-2.375-2.042-2.766-3.526c-0.368-1.443-0.342-3.013,0.213-4.406C64.752,2.515,65.754,1.387,67.05,0.844z"/>
<path fill="#FFD100" d="M84.417,0.716c0.978-0.234,2.033-0.076,2.903,0.422c1.104,0.611,1.869,1.713,2.271,2.891
	c0.531,1.55,0.465,3.261-0.012,4.815c-0.379,1.17-1.086,2.295-2.176,2.919c-1.361,0.786-3.178,0.729-4.457-0.202
	c-1.279-0.901-1.932-2.456-2.148-3.962c-0.293-1.772,0.012-3.703,1.098-5.168C82.498,1.585,83.408,0.958,84.417,0.716 M84.675,2.341
	c-0.834,0.254-1.383,1.028-1.646,1.822c-0.416,1.261-0.395,2.63-0.149,3.922c0.181,0.792,0.486,1.619,1.136,2.147
	c0.852,0.696,2.25,0.568,2.938-0.302c0.809-0.974,0.969-2.3,1.012-3.522c-0.016-1.219-0.189-2.566-1.059-3.497
	C86.359,2.297,85.449,2.125,84.675,2.341z"/>
<path fill="#FFD100" d="M74.328,0.803c1.652-0.029,3.307-0.003,4.961-0.015c0.02,0.506,0.025,1.012,0.014,1.518
	c-1.025,0.003-2.051,0.012-3.076-0.008c-0.057,1.02-0.022,2.041-0.018,3.062c0.992,0.023,1.982,0.023,2.977,0
	c0.08,0.505,0.043,1.017,0.033,1.526c-0.996,0.012-1.994,0.014-2.992-0.001c-0.063,1.208-0.02,2.42-0.021,3.629
	c1.224,0.017,2.446-0.02,3.67,0.02c-0.015,0.493-0.015,0.987,0,1.481c-1.853,0.043-3.707,0.044-5.56,0
	C74.344,8.278,74.324,4.541,74.328,0.803z"/>
<path fill="#FFD100" d="M31.304,15.269c2.079-0.199,4.146-0.512,6.228-0.679c0.925,5.817,1.89,11.631,2.829,17.447
	c0.03,0.139,0.08,0.273,0.128,0.406c1.418-5.842,2.987-11.648,4.419-17.489c1.736-0.038,3.48-0.064,5.216,0.014
	c1.48,5.554,3.055,11.082,4.557,16.63c0.046,0.166,0.112,0.322,0.196,0.477c0.856-5.827,1.646-11.664,2.487-17.492
	c1.79,0.249,3.571,0.559,5.358,0.837c-1.578,8.063-3.254,16.108-4.818,24.175c-0.838,0.063-1.682,0.098-2.521,0.043
	c-1.414-0.064-2.831,0.11-4.242-0.027c-1.244-4.586-2.504-9.17-3.754-13.756c-0.088-0.352-0.183-0.699-0.327-1.031
	c-1.236,4.934-2.515,9.857-3.751,14.791c-1.463,0.074-2.928,0.002-4.393,0.033c-0.791-0.004-1.586,0.07-2.373-0.06
	C34.854,31.471,33.005,23.384,31.304,15.269z"/>
<path fill="#FFD100" d="M73.085,14.98c2.004,0.018,4.006-0.002,6.013,0.011c0,6.636-0.013,13.274,0.006,19.909
	c2.498,0.019,4.994-0.021,7.492,0.021c0.012,1.563,0.006,3.126,0.004,4.688c-0.599,0.109-1.203,0.021-1.804,0.018
	c-3.764,0.063-7.526-0.025-11.291,0.021c-0.106-0.008-0.325-0.026-0.435-0.035c-0.032-4.42-0.004-8.838-0.014-13.256
	C73.078,22.566,73.02,18.772,73.085,14.98z"/>
<path fill="#FFD100" d="M64.164,15.07c1.999-0.003,3.996-0.009,5.994,0.001c0.01,8.185,0,16.369,0.004,24.551
	c-2,0.049-4,0.028-5.999,0.009C64.141,31.445,64.14,23.256,64.164,15.07z"/>
<path fill="#FFD100" d="M106.9,31.697c0.34-0.887,0.551-1.809,0.697-2.744h-6.306c-0.104,0.725-0.269,1.441-0.506,2.134
	c-0.498,1.414-1.399,2.785-2.795,3.438c-0.625,0.305-1.306,0.393-1.992,0.412v4.684c2.133-0.045,4.287-0.569,6.086-1.742
	C104.343,36.454,105.996,34.189,106.9,31.697z"/>
<path fill="#FFD100" d="M94.566,34.92c0.012-5.13-0.006-10.261,0.008-15.39c1.156,0.057,2.381-0.188,3.475,0.317
	c1.357,0.631,2.203,1.988,2.695,3.351c0.639,1.834,0.822,3.827,0.549,5.753h6.305c0.096-0.619,0.17-1.241,0.213-1.865V26.26
	c-0.123-2.882-1.039-5.836-3.059-7.962c-1.371-1.489-3.217-2.495-5.182-2.948c-1.945-0.489-3.961-0.299-5.943-0.361
	c-1.715,0.012-3.428-0.087-5.143-0.036c0,8.22-0.002,16.439,0,24.658c2.377,0.035,4.758,0.005,7.137,0.018
	c0.127,0,0.252-0.006,0.379-0.009v-4.683C95.521,34.952,95.039,34.938,94.566,34.92z"/>
<g>
	<path fill="#FFD100" d="M125.953,32.285c-0.117,0-0.217,0.004-0.301,0.009v4.036c0.043,0.001,0.084,0.001,0.125,0.001l0,0
		c0.676,0,1.176-0.171,1.514-0.507c0.359-0.357,0.541-0.908,0.541-1.639c0.004-0.621-0.152-1.099-0.471-1.418
		C127.042,32.448,126.568,32.285,125.953,32.285z"/>
</g>
<g>
	<path fill="#FFD100" d="M131.746,28.953h-21.188c-0.141,0.915-2.184,10.381-8.354,10.732h29.543L131.746,28.953L131.746,28.953z
		 M121.891,38.486h-2.599v-3.111h-1.851v3.111h-2.606V30.13h2.606v2.856h1.851V30.13h2.599V38.486z M129.141,37.495
		c-0.854,0.71-2.107,1.067-3.729,1.067c-0.729,0-1.393-0.037-1.969-0.113l-0.4-0.053v-8.102l0.389-0.063
		c0.646-0.104,1.478-0.159,2.346-0.159c1.484,0,2.511,0.272,3.322,0.888c0.941,0.698,1.441,1.796,1.441,3.169
		C130.541,35.934,129.779,36.955,129.141,37.495z"/>
</g>
</svg>
