<?xml version="1.0" encoding="utf-8"?>
<!-- Generator: Adobe Illustrator 15.0.0, SVG Export Plug-In . SVG Version: 6.00 Build 0)  -->
<!DOCTYPE svg PUBLIC "-//W3C//DTD SVG 1.1//EN" "http://www.w3.org/Graphics/SVG/1.1/DTD/svg11.dtd">
<svg version="1.1" id="Capa_1" xmlns="http://www.w3.org/2000/svg" xmlns:xlink="http://www.w3.org/1999/xlink" x="0px" y="0px"
	 width="131.746px" height="40px" viewBox="0 0 131.746 40" enable-background="new 0 0 131.746 40" xml:space="preserve">
<g>
	<path fill="#FDD100" d="M27.826,40H0V0h27.826V40z M23.478,4.348H4.348v31.306h19.13V4.348z"/>
	<g>
		<path fill="#FDD100" d="M47.058,0h1.719c0.021,0.197,0.055,0.39,0.104,0.581c1.167,3.773,2.347,7.542,3.487,11.322
			c-0.745,0.009-1.492,0.037-2.234-0.029c-0.265-1.067-0.582-2.121-0.871-3.18c-1.159-0.012-2.317-0.011-3.476,0
			c-0.314,1.067-0.668,2.124-0.969,3.196c-0.569,0.024-1.143,0.034-1.712,0.015C44.384,7.924,45.746,3.97,47.058,0 M47.209,4.108
			c-0.254,1.036-0.622,2.041-0.863,3.078c0.869-0.006,1.742,0.046,2.611-0.033c-0.461-1.573-0.873-3.16-1.271-4.751
			C47.444,2.944,47.375,3.542,47.209,4.108z"/>
		<path fill="#FDD100" d="M51.468,0h8.026c0.007,0.542-0.004,1.085-0.021,1.627c-1.001-0.007-2.003-0.034-3.002,0.011
			c0.006,3.425,0.012,6.852-0.005,10.276c-0.661,0.018-1.324,0.017-1.984-0.009c0.003-3.426,0.007-6.854-0.001-10.279
			c-1.004-0.02-2.01-0.006-3.016-0.009C51.465,1.079,51.463,0.539,51.468,0z"/>
		<path fill="#FDD100" d="M33.481,0.178c0.491-0.037,0.982-0.049,1.476-0.026c1.597,2.279,3.146,4.593,4.629,6.947
			c0.321,0.486,0.577,1.02,0.969,1.458c-0.001-2.804-0.012-5.609,0.004-8.412c0.523-0.017,1.05-0.012,1.573,0.012
			c0.006,3.965,0.009,7.929-0.001,11.894c-0.46,0.006-0.925,0.047-1.384-0.012c-0.22-0.145-0.325-0.403-0.478-0.608
			c-1.675-2.455-3.347-4.919-4.874-7.47c-0.085-0.125-0.177-0.246-0.275-0.36c-0.035,2.817-0.003,5.637-0.018,8.455
			c-0.54,0.01-1.083,0.036-1.62-0.04C33.508,8.07,33.513,4.125,33.481,0.178z"/>
		<path fill="#FDD100" d="M67.05,0.844c1.534-0.669,3.396-0.528,4.78,0.428c-0.159,0.445-0.359,0.872-0.529,1.313
			c-0.502-0.055-0.937-0.356-1.438-0.433c-1.08-0.233-2.283,0.105-3.01,0.958c-0.913,1.055-1.118,2.537-0.985,3.884
			c0.107,1.227,0.662,2.497,1.727,3.184c0.801,0.528,1.842,0.528,2.717,0.19c0.013-1.178-0.001-2.356,0.008-3.533
			c0.644-0.008,1.291-0.055,1.934,0.034c-0.024,1.553-0.021,3.106-0.005,4.659c-1.688,0.743-3.729,1.063-5.438,0.22
			c-1.413-0.662-2.375-2.042-2.767-3.526c-0.368-1.443-0.342-3.013,0.213-4.406C64.752,2.515,65.754,1.387,67.05,0.844z"/>
		<path fill="#FDD100" d="M84.417,0.716c0.979-0.234,2.034-0.076,2.903,0.422c1.104,0.611,1.87,1.713,2.271,2.891
			c0.532,1.55,0.466,3.261-0.012,4.815c-0.378,1.17-1.085,2.295-2.176,2.919c-1.36,0.786-3.178,0.729-4.456-0.202
			C81.67,10.66,81.018,9.105,80.8,7.599c-0.292-1.772,0.013-3.703,1.098-5.168C82.497,1.585,83.407,0.958,84.417,0.716
			 M84.675,2.341c-0.833,0.254-1.383,1.028-1.646,1.822c-0.414,1.261-0.394,2.63-0.148,3.922c0.181,0.792,0.486,1.619,1.136,2.147
			c0.852,0.696,2.25,0.568,2.937-0.302c0.81-0.974,0.97-2.3,1.013-3.522c-0.017-1.219-0.19-2.566-1.059-3.497
			C86.358,2.297,85.448,2.125,84.675,2.341z"/>
		<path fill="#FDD100" d="M74.327,0.803c1.653-0.029,3.308-0.003,4.961-0.015c0.021,0.506,0.025,1.012,0.014,1.518
			c-1.024,0.003-2.051,0.012-3.076-0.008c-0.056,1.02-0.022,2.041-0.017,3.062c0.991,0.023,1.982,0.023,2.977,0
			c0.08,0.505,0.043,1.017,0.032,1.526c-0.996,0.012-1.994,0.014-2.991-0.001c-0.062,1.208-0.02,2.42-0.021,3.629
			c1.222,0.017,2.445-0.02,3.67,0.02c-0.015,0.493-0.015,0.987,0,1.481c-1.853,0.043-3.708,0.044-5.56,0
			C74.344,8.278,74.323,4.541,74.327,0.803z"/>
		<path fill="#FDD100" d="M31.304,15.269c2.078-0.199,4.146-0.512,6.229-0.679c0.925,5.817,1.89,11.631,2.828,17.447
			c0.03,0.139,0.08,0.273,0.129,0.406c1.418-5.842,2.986-11.648,4.419-17.489c1.735-0.038,3.479-0.064,5.216,0.014
			c1.479,5.554,3.056,11.082,4.558,16.63c0.046,0.166,0.111,0.322,0.195,0.477c0.855-5.827,1.646-11.664,2.486-17.492
			c1.79,0.249,3.571,0.559,5.358,0.837c-1.578,8.063-3.255,16.108-4.818,24.175c-0.838,0.063-1.682,0.098-2.521,0.043
			c-1.414-0.064-2.831,0.11-4.241-0.027c-1.244-4.586-2.504-9.17-3.754-13.756c-0.089-0.352-0.184-0.699-0.327-1.031
			c-1.235,4.934-2.516,9.857-3.751,14.791c-1.463,0.074-2.929,0.002-4.394,0.033c-0.791-0.004-1.586,0.07-2.373-0.06
			C34.854,31.471,33.005,23.384,31.304,15.269z"/>
		<path fill="#FDD100" d="M73.085,14.98c2.004,0.018,4.007-0.002,6.013,0.011c0.001,6.636-0.013,13.274,0.006,19.909
			c2.498,0.019,4.995-0.021,7.492,0.021c0.012,1.563,0.006,3.126,0.004,4.688c-0.598,0.109-1.202,0.021-1.804,0.018
			c-3.763,0.062-7.525-0.025-11.29,0.021c-0.107-0.008-0.325-0.026-0.436-0.035c-0.031-4.42-0.004-8.838-0.014-13.256
			C73.078,22.566,73.02,18.772,73.085,14.98z"/>
		<path fill="#FDD100" d="M88.483,14.955c1.715-0.052,3.429,0.048,5.144,0.036c1.98,0.062,3.998-0.128,5.942,0.361
			c1.965,0.453,3.812,1.458,5.183,2.948c2.019,2.126,2.935,5.08,3.059,7.962v0.826c-0.109,1.564-0.346,3.137-0.909,4.609
			c-0.905,2.492-2.559,4.757-4.814,6.183c-1.904,1.242-4.208,1.763-6.464,1.751c-2.379-0.013-4.759,0.018-7.137-0.017
			C88.481,31.396,88.483,23.175,88.483,14.955 M94.573,19.531c-0.013,5.129,0.003,10.259-0.008,15.39
			c1.146,0.041,2.363,0.123,3.427-0.396c1.396-0.653,2.297-2.024,2.795-3.438c0.866-2.532,0.836-5.36-0.044-7.888
			c-0.491-1.363-1.336-2.72-2.695-3.351C96.955,19.343,95.73,19.587,94.573,19.531z"/>
		<path fill="#FDD100" d="M64.164,15.07c1.999-0.003,3.995-0.009,5.993,0.001c0.011,8.185,0.001,16.369,0.004,24.551
			c-2,0.049-3.999,0.028-5.998,0.009C64.141,31.445,64.14,23.256,64.164,15.07z"/>
	</g>
</g>
</svg>
