<?xml version="1.0" encoding="utf-8"?>
<!-- Generator: Adobe Illustrator 15.0.2, SVG Export Plug-In . SVG Version: 6.00 Build 0)  -->
<!DOCTYPE svg PUBLIC "-//W3C//DTD SVG 1.1//EN" "http://www.w3.org/Graphics/SVG/1.1/DTD/svg11.dtd">
<svg version="1.1" id="Capa_1" xmlns="http://www.w3.org/2000/svg" xmlns:xlink="http://www.w3.org/1999/xlink" x="0px" y="0px"
	 width="112.012px" height="40px" viewBox="0 0 112.012 40" enable-background="new 0 0 112.012 40" xml:space="preserve">
<g>
	<g>
		<g>
			<path fill="#FFD100" d="M37.741,11.048L33.75,3.621v7.427h-1.89V0.217h1.813l3.715,6.995V0.217h1.887v10.831H37.741z"/>
			<path fill="#FFD100" d="M46.669,11.048l-0.761-2.615h-2.896l-0.757,2.615h-1.964L43.58,0.217h1.73l3.318,10.831H46.669z
				 M44.449,3.342l-0.771,3.173h1.563L44.449,3.342z"/>
			<path fill="#FFD100" d="M52.394,2.136v8.912h-1.888V2.136h-2.599V0.217h7.087v1.919H52.394z"/>
			<path fill="#FFD100" d="M56.062,11.048V0.217h1.89v10.831H56.062z"/>
			<path fill="#FFD100" d="M63.937,11.265c-0.67,0-1.284-0.136-1.841-0.403c-0.558-0.268-1.042-0.647-1.455-1.137
				c-0.411-0.49-0.73-1.082-0.958-1.772c-0.228-0.691-0.341-1.464-0.341-2.321c0-0.845,0.113-1.617,0.341-2.312
				c0.229-0.697,0.547-1.289,0.958-1.78c0.413-0.489,0.897-0.869,1.455-1.138C62.653,0.133,63.267,0,63.937,0
				c0.661,0,1.271,0.133,1.834,0.402c0.563,0.269,1.047,0.649,1.455,1.138c0.406,0.491,0.725,1.083,0.95,1.78
				c0.228,0.695,0.34,1.467,0.34,2.312c0,0.857-0.113,1.63-0.34,2.321c-0.228,0.691-0.544,1.282-0.95,1.772
				c-0.407,0.489-0.894,0.869-1.455,1.137C65.209,11.129,64.598,11.265,63.937,11.265z M63.93,1.887c-0.424,0-0.79,0.094-1.104,0.28
				c-0.313,0.188-0.574,0.445-0.78,0.777c-0.205,0.332-0.361,0.728-0.47,1.189c-0.107,0.461-0.161,0.961-0.161,1.499
				c0,0.55,0.054,1.052,0.161,1.507c0.106,0.457,0.265,0.85,0.47,1.181c0.206,0.332,0.466,0.59,0.78,0.777
				c0.313,0.186,0.68,0.279,1.104,0.279c0.41,0,0.775-0.093,1.095-0.279c0.319-0.187,0.582-0.446,0.787-0.777
				c0.206-0.331,0.362-0.725,0.474-1.181c0.105-0.456,0.158-0.958,0.158-1.507c0-0.538-0.053-1.038-0.158-1.499
				c-0.108-0.461-0.268-0.857-0.474-1.189c-0.205-0.332-0.467-0.59-0.787-0.777C64.706,1.981,64.341,1.887,63.93,1.887z"/>
			<path fill="#FFD100" d="M75.882,11.048l-3.99-7.427v7.427h-1.889V0.217h1.811l3.714,6.995V0.217h1.889v10.831H75.882z"/>
			<path fill="#FFD100" d="M84.811,11.048L84.05,8.433h-2.893l-0.757,2.615h-1.965l3.288-10.831h1.732l3.317,10.831H84.811z
				 M82.591,3.342L81.82,6.515h1.563L82.591,3.342z"/>
			<path fill="#FFD100" d="M87.75,11.048V0.217h1.889V9.13h3.65v1.918H87.75z"/>
		</g>
		<g>
			<path fill="#FFD100" d="M35.854,25.633c-0.661,0-1.27-0.135-1.826-0.402c-0.557-0.271-1.035-0.646-1.438-1.139
				c-0.401-0.49-0.716-1.082-0.943-1.779c-0.227-0.693-0.34-1.473-0.34-2.329c0-0.846,0.113-1.614,0.34-2.306
				c0.229-0.69,0.545-1.282,0.953-1.772c0.406-0.49,0.896-0.868,1.461-1.137c0.567-0.268,1.19-0.402,1.873-0.402
				c0.228,0,0.468,0.016,0.729,0.046c0.257,0.03,0.514,0.071,0.766,0.123c0.252,0.051,0.495,0.117,0.729,0.198
				c0.229,0.082,0.431,0.169,0.596,0.262l-0.217,1.877c-0.353-0.176-0.762-0.324-1.229-0.442c-0.47-0.118-0.91-0.177-1.322-0.177
				c-0.455,0-0.845,0.092-1.169,0.28c-0.323,0.187-0.594,0.446-0.805,0.777c-0.211,0.333-0.368,0.722-0.471,1.174
				c-0.104,0.449-0.156,0.938-0.156,1.467c0,0.56,0.059,1.069,0.171,1.53c0.114,0.461,0.28,0.856,0.497,1.197
				c0.219,0.336,0.49,0.596,0.816,0.781c0.323,0.188,0.706,0.28,1.142,0.28c0.197,0,0.387-0.019,0.567-0.048
				c0.18-0.03,0.38-0.072,0.599-0.125v-1.946H36.34v-1.641h2.725v4.83c-0.166,0.111-0.374,0.219-0.627,0.315
				s-0.524,0.188-0.82,0.267c-0.293,0.074-0.594,0.137-0.896,0.178C36.408,25.611,36.122,25.633,35.854,25.633z"/>
			<path fill="#FFD100" d="M40.697,25.416V14.584h6.08v1.919h-4.131v2.305h3.172v1.92h-3.172v2.77h4.271v1.917L40.697,25.416
				L40.697,25.416z"/>
			<path fill="#FFD100" d="M52.208,25.633c-0.671,0-1.284-0.135-1.841-0.402c-0.56-0.271-1.042-0.646-1.455-1.139
				c-0.414-0.49-0.731-1.08-0.959-1.771c-0.229-0.689-0.343-1.465-0.343-2.318c0-0.846,0.114-1.617,0.343-2.313
				c0.228-0.696,0.546-1.29,0.959-1.78c0.412-0.49,0.896-0.868,1.455-1.137c0.557-0.268,1.17-0.402,1.841-0.402
				c0.66,0,1.271,0.134,1.834,0.402c0.563,0.27,1.046,0.647,1.455,1.137c0.405,0.49,0.725,1.084,0.951,1.78
				c0.227,0.697,0.341,1.468,0.341,2.313c0,0.854-0.114,1.629-0.341,2.318c-0.229,0.691-0.546,1.281-0.951,1.771
				c-0.408,0.491-0.895,0.868-1.455,1.139C53.48,25.498,52.869,25.633,52.208,25.633z M52.2,16.256c-0.422,0-0.788,0.092-1.104,0.28
				c-0.313,0.187-0.573,0.446-0.778,0.777c-0.206,0.333-0.361,0.728-0.47,1.188c-0.107,0.46-0.163,0.96-0.163,1.5
				c0,0.549,0.056,1.052,0.163,1.506c0.106,0.457,0.265,0.849,0.47,1.181s0.466,0.59,0.778,0.777c0.313,0.188,0.682,0.28,1.104,0.28
				c0.41,0,0.775-0.093,1.097-0.28c0.318-0.188,0.581-0.447,0.787-0.777c0.206-0.332,0.359-0.725,0.471-1.181
				c0.107-0.454,0.161-0.957,0.161-1.506c0-0.539-0.054-1.039-0.161-1.5c-0.109-0.46-0.266-0.856-0.471-1.188
				c-0.206-0.331-0.469-0.59-0.787-0.777C52.978,16.348,52.612,16.256,52.2,16.256z"/>
			<path fill="#FFD100" d="M62.266,25.633c-0.66,0-1.27-0.135-1.826-0.402c-0.558-0.271-1.036-0.646-1.438-1.139
				c-0.401-0.49-0.717-1.082-0.942-1.779c-0.229-0.693-0.342-1.473-0.342-2.329c0-0.846,0.113-1.614,0.342-2.306
				c0.229-0.69,0.543-1.282,0.95-1.772c0.408-0.49,0.896-0.868,1.463-1.137c0.566-0.268,1.191-0.402,1.872-0.402
				c0.229,0,0.47,0.016,0.729,0.046c0.257,0.03,0.513,0.071,0.767,0.123c0.252,0.051,0.495,0.117,0.728,0.198
				c0.231,0.082,0.433,0.169,0.598,0.262l-0.216,1.877c-0.353-0.176-0.763-0.324-1.231-0.442c-0.469-0.118-0.908-0.177-1.321-0.177
				c-0.455,0-0.844,0.092-1.168,0.28c-0.325,0.187-0.594,0.446-0.805,0.777c-0.211,0.333-0.37,0.722-0.472,1.174
				c-0.104,0.449-0.155,0.938-0.155,1.467c0,0.56,0.058,1.069,0.171,1.53c0.114,0.461,0.279,0.856,0.498,1.197
				c0.217,0.336,0.488,0.596,0.813,0.781c0.326,0.188,0.706,0.28,1.144,0.28c0.196,0,0.385-0.019,0.564-0.048
				c0.184-0.03,0.383-0.072,0.6-0.125v-1.946h-0.835v-1.641h2.724v4.83c-0.166,0.111-0.374,0.219-0.626,0.315
				c-0.254,0.101-0.524,0.188-0.819,0.267c-0.295,0.074-0.596,0.137-0.897,0.178C62.82,25.611,62.534,25.633,62.266,25.633z"/>
			<path fill="#FFD100" d="M72.401,25.416l-1.872-4.021h-1.64v4.021h-1.854V14.584h3.572c0.435,0,0.845,0.052,1.229,0.155
				c0.388,0.103,0.728,0.278,1.021,0.526s0.525,0.57,0.696,0.967c0.17,0.398,0.256,0.89,0.256,1.478
				c0,0.422-0.044,0.794-0.132,1.114c-0.089,0.32-0.202,0.603-0.342,0.852c-0.141,0.248-0.302,0.469-0.486,0.666
				c-0.187,0.195-0.376,0.37-0.573,0.524l2.074,4.549L72.401,25.416L72.401,25.416z M68.889,16.24v3.295h0.929
				c0.476,0,0.85-0.04,1.121-0.123c0.272-0.083,0.476-0.199,0.604-0.348c0.128-0.149,0.208-0.328,0.24-0.534
				c0.028-0.207,0.046-0.434,0.046-0.682c0-0.247-0.021-0.471-0.063-0.673c-0.042-0.202-0.125-0.371-0.248-0.511
				c-0.125-0.139-0.302-0.244-0.534-0.317c-0.23-0.072-0.539-0.108-0.92-0.108L68.889,16.24L68.889,16.24z"/>
			<path fill="#FFD100" d="M80.772,25.416l-0.763-2.615h-2.892l-0.758,2.615h-1.964l3.287-10.831h1.731l3.318,10.831H80.772z
				 M78.551,17.71l-0.771,3.172h1.563L78.551,17.71z"/>
			<path fill="#FFD100" d="M85.476,21.855v3.561H83.62V14.584h2.489c0.732,0,1.37,0.039,1.912,0.115
				c0.541,0.078,0.989,0.241,1.347,0.489c0.354,0.248,0.617,0.596,0.79,1.044c0.171,0.448,0.256,1.044,0.256,1.788
				c0,0.772-0.117,1.41-0.351,1.91c-0.23,0.501-0.518,0.893-0.856,1.175c-0.341,0.285-0.709,0.479-1.105,0.588
				c-0.396,0.106-0.767,0.162-1.105,0.162H85.476L85.476,21.855z M85.476,16.24V20h1.308c0.601,0,1.042-0.144,1.32-0.434
				c0.279-0.289,0.42-0.799,0.42-1.532c0-0.31-0.021-0.578-0.068-0.806c-0.047-0.227-0.135-0.411-0.26-0.557
				c-0.124-0.144-0.293-0.251-0.504-0.325c-0.212-0.072-0.482-0.108-0.815-0.108h-1.398L85.476,16.24L85.476,16.24z"/>
			<path fill="#FFD100" d="M97.653,25.416v-4.688H93.63v4.688h-1.888V14.584h1.888v4.224h4.021v-4.224h1.889v10.831L97.653,25.416
				L97.653,25.416z"/>
			<path fill="#FFD100" d="M101.491,25.416V14.584h1.887v10.831L101.491,25.416L101.491,25.416z"/>
			<path fill="#FFD100" d="M109.319,25.633c-0.659,0-1.271-0.135-1.824-0.402c-0.559-0.271-1.036-0.646-1.438-1.139
				c-0.403-0.49-0.718-1.08-0.943-1.771c-0.229-0.689-0.341-1.465-0.341-2.318c0-0.846,0.112-1.617,0.341-2.313
				c0.228-0.696,0.543-1.29,0.95-1.78c0.408-0.49,0.892-0.868,1.446-1.137c0.558-0.268,1.166-0.402,1.825-0.402
				c0.497,0,0.979,0.056,1.445,0.169c0.471,0.112,0.881,0.266,1.23,0.46l-0.217,1.877c-0.395-0.176-0.775-0.324-1.152-0.442
				c-0.376-0.118-0.812-0.177-1.309-0.177c-0.423,0-0.789,0.092-1.1,0.28c-0.311,0.187-0.566,0.446-0.772,0.777
				c-0.206,0.333-0.359,0.728-0.463,1.188c-0.104,0.46-0.155,0.96-0.155,1.5c0,0.549,0.052,1.053,0.155,1.506
				c0.104,0.457,0.257,0.85,0.463,1.184c0.207,0.33,0.465,0.59,0.772,0.774c0.311,0.187,0.67,0.28,1.083,0.28
				c0.495,0,0.936-0.063,1.314-0.182c0.383-0.119,0.769-0.265,1.16-0.438l0.216,1.878c-0.339,0.194-0.75,0.349-1.229,0.46
				C110.299,25.577,109.814,25.633,109.319,25.633z"/>
		</g>
		<g>
			<path fill="#FFD100" d="M35.854,40c-0.661,0-1.27-0.134-1.826-0.402c-0.557-0.268-1.035-0.646-1.438-1.138
				c-0.401-0.489-0.716-1.08-0.943-1.772c-0.227-0.688-0.34-1.463-0.34-2.316c0-0.85,0.113-1.618,0.34-2.313
				c0.229-0.695,0.545-1.289,0.953-1.779c0.406-0.489,0.891-0.869,1.445-1.139c0.559-0.27,1.166-0.4,1.827-0.4
				c0.495,0,0.978,0.056,1.444,0.168c0.471,0.113,0.878,0.266,1.229,0.46l-0.216,1.877c-0.394-0.175-0.775-0.322-1.153-0.44
				c-0.377-0.119-0.813-0.177-1.307-0.177c-0.425,0-0.79,0.093-1.102,0.278c-0.31,0.188-0.565,0.447-0.771,0.777
				c-0.207,0.332-0.36,0.728-0.464,1.188c-0.104,0.46-0.156,0.96-0.156,1.501c0,0.548,0.053,1.049,0.156,1.505
				c0.104,0.455,0.257,0.852,0.464,1.182c0.206,0.332,0.464,0.592,0.771,0.776c0.312,0.188,0.671,0.278,1.083,0.278
				c0.496,0,0.935-0.059,1.315-0.178c0.38-0.119,0.769-0.267,1.16-0.438l0.216,1.876c-0.34,0.193-0.75,0.348-1.229,0.461
				C36.836,39.943,36.349,40,35.854,40z"/>
			<path fill="#FFD100" d="M45.88,39.784v-4.688h-4.022v4.688H39.97V28.953h1.887v4.224h4.022v-4.224h1.889v10.832L45.88,39.784
				L45.88,39.784z"/>
			<path fill="#FFD100" d="M55.164,39.784l-0.764-2.615h-2.894l-0.756,2.615h-1.964l3.288-10.832h1.73l3.318,10.832H55.164z
				 M52.943,32.08l-0.771,3.171h1.563L52.943,32.08z"/>
			<path fill="#FFD100" d="M63.983,39.784l-3.99-7.429v7.429h-1.89V28.953h1.813l3.713,6.994v-6.994h1.889v10.832L63.983,39.784
				L63.983,39.784z"/>
			<path fill="#FFD100" d="M73.438,39.784l-3.993-7.429v7.429h-1.888V28.953h1.813l3.714,6.994v-6.994h1.888v10.832L73.438,39.784
				L73.438,39.784z"/>
			<path fill="#FFD100" d="M77.012,39.784V28.953h6.08v1.918h-4.131v2.306h3.172v1.919h-3.172v2.771h4.271v1.918L77.012,39.784
				L77.012,39.784z"/>
			<path fill="#FFD100" d="M84.702,39.784V28.953h1.887v8.913h3.653v1.918H84.702z"/>
		</g>
	</g>
	<path fill="#FFD100" d="M27.826,40H0V0h27.826V40z M23.478,4.348H4.348v31.306h19.13V4.348z"/>
</g>
</svg>
