<?xml version="1.0" encoding="utf-8"?>
<!-- Generator: Adobe Illustrator 15.0.2, SVG Export Plug-In . SVG Version: 6.00 Build 0)  -->
<!DOCTYPE svg PUBLIC "-//W3C//DTD SVG 1.1//EN" "http://www.w3.org/Graphics/SVG/1.1/DTD/svg11.dtd">
<svg version="1.1" id="Capa_1" xmlns="http://www.w3.org/2000/svg" xmlns:xlink="http://www.w3.org/1999/xlink" x="0px" y="0px"
	 width="291.233px" height="104px" viewBox="0 0 291.233 104" enable-background="new 0 0 291.233 104" xml:space="preserve">
<g>
	<g>
		<g>
			<path fill="#FFFFFF" d="M98.128,28.725L87.749,9.415v19.31h-4.908V0.563h4.708l9.655,18.185V0.563h4.907v28.162H98.128z"/>
			<path fill="#FFFFFF" d="M121.342,28.725l-1.978-6.799h-7.524l-1.964,6.799h-5.108l8.549-28.162h4.505l8.629,28.162H121.342z
				 M115.569,8.69l-2.005,8.247h4.063L115.569,8.69z"/>
			<path fill="#FFFFFF" d="M136.226,5.552v23.173h-4.908V5.552h-6.757V0.563h18.425v4.989H136.226z"/>
			<path fill="#FFFFFF" d="M145.761,28.725V0.563h4.908v28.162H145.761z"/>
			<path fill="#FFFFFF" d="M166.24,29.288c-1.744,0-3.34-0.349-4.789-1.045c-1.447-0.697-2.709-1.683-3.782-2.957
				c-1.072-1.274-1.904-2.81-2.493-4.607c-0.591-1.797-0.885-3.808-0.885-6.034c0-2.199,0.294-4.205,0.885-6.014
				c0.589-1.811,1.421-3.354,2.493-4.627c1.073-1.273,2.335-2.26,3.782-2.958C162.9,0.35,164.496,0,166.24,0
				c1.714,0,3.305,0.35,4.767,1.045c1.461,0.697,2.721,1.684,3.78,2.958c1.062,1.274,1.885,2.816,2.476,4.627
				c0.59,1.81,0.885,3.815,0.885,6.014c0,2.226-0.295,4.237-0.885,6.034c-0.591,1.797-1.414,3.333-2.476,4.607
				c-1.06,1.274-2.319,2.26-3.78,2.957C169.545,28.939,167.954,29.288,166.24,29.288z M166.222,4.908c-1.1,0-2.057,0.243-2.87,0.728
				c-0.816,0.484-1.491,1.158-2.026,2.02c-0.534,0.862-0.942,1.892-1.224,3.091c-0.28,1.197-0.42,2.497-0.42,3.898
				c0,1.427,0.14,2.733,0.42,3.918c0.281,1.185,0.689,2.209,1.224,3.071c0.535,0.861,1.21,1.534,2.026,2.02
				c0.813,0.484,1.771,0.726,2.87,0.726c1.067,0,2.017-0.242,2.845-0.726c0.829-0.486,1.511-1.159,2.043-2.02
				c0.537-0.862,0.945-1.886,1.226-3.071c0.28-1.185,0.421-2.491,0.421-3.918c0-1.401-0.141-2.701-0.421-3.898
				c-0.28-1.199-0.688-2.229-1.226-3.091c-0.532-0.862-1.214-1.536-2.043-2.02C168.238,5.151,167.289,4.908,166.222,4.908z"/>
			<path fill="#FFFFFF" d="M197.295,28.725l-10.376-19.31v19.31h-4.908V0.563h4.705l9.658,18.185V0.563h4.907v28.162H197.295z"/>
			<path fill="#FFFFFF" d="M220.51,28.725l-1.979-6.799h-7.52l-1.965,6.799h-5.11l8.549-28.162h4.507l8.63,28.162H220.51z
				 M214.737,8.69l-2.004,8.247h4.062L214.737,8.69z"/>
			<path fill="#FFFFFF" d="M228.154,28.725V0.563h4.909v23.173h9.492v4.989H228.154z"/>
		</g>
		<g>
			<path fill="#FFFFFF" d="M93.221,66.646c-1.717,0-3.299-0.35-4.747-1.048c-1.45-0.696-2.695-1.683-3.743-2.958
				c-1.045-1.272-1.862-2.814-2.452-4.625c-0.591-1.812-0.887-3.829-0.887-6.055c0-2.199,0.296-4.197,0.887-5.995
				c0.59-1.796,1.415-3.332,2.473-4.606c1.06-1.273,2.326-2.259,3.801-2.957c1.477-0.697,3.099-1.047,4.869-1.047
				c0.59,0,1.22,0.042,1.891,0.122c0.668,0.08,1.334,0.186,1.991,0.319c0.656,0.134,1.288,0.307,1.892,0.519
				c0.603,0.212,1.12,0.438,1.549,0.677l-0.564,4.881c-0.913-0.454-1.979-0.837-3.198-1.146c-1.221-0.308-2.366-0.463-3.438-0.463
				c-1.182,0-2.194,0.243-3.039,0.728c-0.844,0.486-1.541,1.158-2.091,2.021c-0.551,0.861-0.961,1.878-1.227,3.049
				c-0.27,1.172-0.404,2.444-0.404,3.817c0,1.455,0.148,2.78,0.446,3.979c0.294,1.198,0.727,2.234,1.291,3.11
				c0.567,0.875,1.274,1.555,2.122,2.04c0.848,0.485,1.839,0.728,2.969,0.728c0.511,0,1.002-0.04,1.475-0.121
				c0.471-0.082,0.99-0.19,1.557-0.324v-5.065h-2.173v-4.266h7.081v12.552c-0.43,0.296-0.974,0.57-1.63,0.825
				c-0.658,0.255-1.367,0.481-2.133,0.686c-0.764,0.199-1.542,0.354-2.332,0.461C94.662,66.591,93.917,66.646,93.221,66.646z"/>
			<path fill="#FFFFFF" d="M105.813,66.082V37.92h15.81v4.989h-10.74v5.994h8.247v4.989h-8.247v7.201h11.103v4.989H105.813z"/>
			<path fill="#FFFFFF" d="M135.744,66.646c-1.743,0-3.339-0.35-4.785-1.048c-1.451-0.696-2.709-1.683-3.782-2.958
				c-1.073-1.272-1.906-2.809-2.494-4.605c-0.59-1.796-0.886-3.808-0.886-6.033c0-2.2,0.296-4.205,0.886-6.015
				c0.588-1.811,1.421-3.353,2.494-4.627c1.073-1.273,2.331-2.259,3.782-2.957c1.446-0.697,3.042-1.047,4.785-1.047
				c1.717,0,3.307,0.35,4.768,1.047c1.462,0.698,2.722,1.684,3.783,2.957c1.058,1.274,1.883,2.816,2.474,4.627
				c0.588,1.81,0.885,3.815,0.885,6.015c0,2.226-0.297,4.237-0.885,6.033c-0.591,1.797-1.416,3.333-2.474,4.605
				c-1.061,1.275-2.321,2.262-3.783,2.958C139.05,66.297,137.46,66.646,135.744,66.646z M135.724,42.265
				c-1.096,0-2.05,0.243-2.868,0.728c-0.815,0.486-1.49,1.158-2.024,2.021c-0.535,0.861-0.943,1.892-1.222,3.09
				c-0.282,1.198-0.423,2.496-0.423,3.898c0,1.426,0.141,2.733,0.423,3.919c0.279,1.184,0.687,2.207,1.222,3.07
				c0.534,0.86,1.209,1.533,2.024,2.019c0.817,0.485,1.772,0.728,2.868,0.728c1.069,0,2.02-0.242,2.849-0.728
				c0.828-0.485,1.51-1.158,2.047-2.019c0.532-0.863,0.941-1.887,1.223-3.07c0.28-1.186,0.421-2.493,0.421-3.919
				c0-1.402-0.141-2.7-0.421-3.898c-0.282-1.198-0.691-2.229-1.223-3.09c-0.537-0.863-1.219-1.535-2.047-2.021
				C137.743,42.507,136.793,42.265,135.724,42.265z"/>
			<path fill="#FFFFFF" d="M161.896,66.646c-1.719,0-3.3-0.35-4.748-1.048c-1.449-0.696-2.694-1.683-3.742-2.958
				c-1.046-1.272-1.863-2.814-2.453-4.625c-0.591-1.812-0.885-3.829-0.885-6.055c0-2.199,0.294-4.197,0.885-5.995
				c0.59-1.796,1.413-3.332,2.472-4.606c1.062-1.273,2.328-2.259,3.803-2.957c1.476-0.697,3.102-1.047,4.869-1.047
				c0.591,0,1.22,0.042,1.89,0.122c0.67,0.08,1.335,0.186,1.993,0.319c0.656,0.134,1.288,0.307,1.891,0.519
				c0.604,0.212,1.119,0.438,1.551,0.677l-0.564,4.881c-0.913-0.454-1.979-0.837-3.199-1.146c-1.221-0.308-2.367-0.463-3.439-0.463
				c-1.181,0-2.194,0.243-3.037,0.728c-0.847,0.486-1.543,1.158-2.091,2.021c-0.549,0.861-0.962,1.878-1.229,3.049
				c-0.27,1.172-0.402,2.444-0.402,3.817c0,1.455,0.147,2.78,0.445,3.979c0.296,1.198,0.727,2.234,1.29,3.11
				c0.566,0.875,1.275,1.555,2.122,2.04c0.848,0.485,1.838,0.728,2.971,0.728c0.51,0,1.002-0.04,1.474-0.121
				c0.47-0.082,0.989-0.19,1.554-0.324v-5.065h-2.173v-4.266h7.083v12.552c-0.43,0.296-0.974,0.57-1.63,0.825
				c-0.659,0.255-1.367,0.481-2.133,0.686c-0.765,0.199-1.543,0.354-2.334,0.461C163.336,66.591,162.59,66.646,161.896,66.646z"/>
			<path fill="#FFFFFF" d="M188.246,66.082l-4.87-10.459h-4.264v10.459h-4.829V37.92h9.295c1.127,0,2.191,0.134,3.198,0.403
				c1.007,0.268,1.892,0.724,2.656,1.367c0.764,0.644,1.368,1.483,1.811,2.514c0.442,1.033,0.664,2.314,0.664,3.843
				c0,1.1-0.114,2.064-0.342,2.896c-0.229,0.832-0.524,1.568-0.887,2.212c-0.361,0.643-0.784,1.22-1.267,1.729
				c-0.483,0.511-0.979,0.965-1.489,1.368l5.392,11.828H188.246z M179.112,42.225v8.569h2.415c1.233,0,2.207-0.107,2.916-0.321
				c0.709-0.214,1.234-0.517,1.569-0.905c0.336-0.389,0.546-0.852,0.624-1.389c0.079-0.535,0.121-1.126,0.121-1.77
				c0-0.644-0.056-1.227-0.163-1.751c-0.105-0.522-0.32-0.965-0.641-1.327c-0.323-0.361-0.786-0.637-1.39-0.825
				s-1.402-0.281-2.395-0.281H179.112z"/>
			<path fill="#FFFFFF" d="M210.011,66.082l-1.979-6.8h-7.524l-1.964,6.8h-5.107l8.548-28.162h4.505l8.63,28.162H210.011z
				 M204.236,46.047l-2.005,8.247h4.063L204.236,46.047z"/>
			<path fill="#FFFFFF" d="M222.24,56.828v9.254h-4.829V37.92h6.477c1.906,0,3.562,0.101,4.971,0.302
				c1.407,0.201,2.574,0.624,3.498,1.267c0.928,0.644,1.61,1.548,2.053,2.715c0.443,1.166,0.665,2.715,0.665,4.647
				c0,2.011-0.304,3.667-0.905,4.968c-0.604,1.301-1.349,2.319-2.233,3.057c-0.886,0.74-1.845,1.247-2.878,1.531
				c-1.031,0.279-1.99,0.42-2.874,0.42H222.24z M222.24,42.225v9.777h3.397c1.562,0,2.707-0.376,3.435-1.127
				c0.729-0.751,1.093-2.078,1.093-3.982c0-0.806-0.061-1.502-0.182-2.092c-0.121-0.59-0.346-1.073-0.666-1.449
				c-0.324-0.375-0.764-0.658-1.315-0.845c-0.553-0.188-1.261-0.281-2.124-0.281H222.24z"/>
			<path fill="#FFFFFF" d="M253.902,66.082v-12.19h-10.461v12.19h-4.909V37.92h4.909v10.982h10.461V37.92h4.907v28.162H253.902z"/>
			<path fill="#FFFFFF" d="M263.878,66.082V37.92h4.907v28.162H263.878z"/>
			<path fill="#FFFFFF" d="M284.233,66.646c-1.716,0-3.301-0.35-4.747-1.048c-1.447-0.696-2.693-1.683-3.741-2.958
				c-1.045-1.272-1.865-2.809-2.453-4.605c-0.591-1.796-0.886-3.808-0.886-6.033c0-2.2,0.295-4.205,0.886-6.015
				c0.588-1.811,1.414-3.353,2.474-4.627c1.06-1.273,2.314-2.259,3.762-2.957c1.449-0.697,3.03-1.047,4.746-1.047
				c1.289,0,2.541,0.147,3.762,0.44c1.222,0.293,2.288,0.691,3.198,1.196l-0.562,4.881c-1.021-0.454-2.02-0.837-2.998-1.146
				c-0.979-0.308-2.111-0.463-3.4-0.463c-1.101,0-2.051,0.243-2.855,0.728c-0.805,0.486-1.477,1.158-2.011,2.021
				c-0.538,0.861-0.939,1.892-1.208,3.09c-0.267,1.198-0.402,2.496-0.402,3.898c0,1.426,0.136,2.733,0.402,3.919
				c0.269,1.184,0.67,2.207,1.208,3.07c0.534,0.86,1.206,1.533,2.011,2.019s1.743,0.728,2.815,0.728
				c1.288,0,2.429-0.153,3.421-0.463c0.991-0.308,1.997-0.69,3.018-1.146l0.562,4.88c-0.884,0.507-1.95,0.904-3.198,1.196
				C286.788,66.498,285.521,66.646,284.233,66.646z"/>
		</g>
		<g>
			<path fill="#FFFFFF" d="M93.221,104.003c-1.717,0-3.299-0.35-4.747-1.047c-1.45-0.698-2.695-1.683-3.743-2.957
				c-1.045-1.272-1.862-2.809-2.452-4.606c-0.591-1.796-0.887-3.808-0.887-6.033c0-2.2,0.296-4.206,0.887-6.015
				c0.59-1.812,1.415-3.353,2.473-4.627c1.06-1.274,2.314-2.259,3.762-2.958c1.449-0.697,3.032-1.047,4.748-1.047
				c1.287,0,2.541,0.147,3.761,0.441c1.222,0.291,2.287,0.691,3.198,1.195l-0.563,4.882c-1.02-0.456-2.02-0.837-2.997-1.147
				c-0.98-0.306-2.113-0.464-3.4-0.464c-1.1,0-2.053,0.245-2.857,0.729c-0.804,0.485-1.475,1.158-2.011,2.021
				c-0.538,0.861-0.941,1.892-1.207,3.089c-0.27,1.198-0.404,2.498-0.404,3.899c0,1.426,0.134,2.732,0.404,3.916
				c0.266,1.187,0.669,2.211,1.207,3.07c0.536,0.863,1.207,1.536,2.011,2.02c0.804,0.487,1.744,0.729,2.816,0.729
				c1.288,0,2.427-0.154,3.421-0.462c0.99-0.31,1.997-0.69,3.017-1.146l0.563,4.881c-0.886,0.505-1.953,0.906-3.198,1.197
				C95.775,103.855,94.509,104.003,93.221,104.003z"/>
			<path fill="#FFFFFF" d="M119.291,103.439v-12.19h-10.46v12.19h-4.907V75.277h4.907v10.983h10.46V75.277h4.909v28.162H119.291z"/>
			<path fill="#FFFFFF" d="M143.427,103.439l-1.978-6.8h-7.522l-1.965,6.8h-5.109l8.548-28.162h4.506l8.629,28.162H143.427z
				 M137.655,83.403l-2.005,8.248h4.063L137.655,83.403z"/>
			<path fill="#FFFFFF" d="M166.357,103.439l-10.378-19.313v19.313h-4.909V75.277h4.707l9.656,18.185V75.277h4.908v28.162H166.357z"
				/>
			<path fill="#FFFFFF" d="M190.94,103.439l-10.38-19.313v19.313h-4.909V75.277h4.708l9.654,18.185V75.277h4.908v28.162H190.94z"/>
			<path fill="#FFFFFF" d="M200.233,103.439V75.277h15.811v4.988h-10.741v5.995h8.248v4.988h-8.248v7.2h11.104v4.99H200.233z"/>
			<path fill="#FFFFFF" d="M220.229,103.439V75.277h4.906v23.172h9.497v4.99H220.229z"/>
		</g>
	</g>
	<path fill="#FFD100" d="M72.349,104.002H0V0.001h72.349V104.002z M61.043,11.306H11.305v81.393h49.738V11.306z"/>
</g>
</svg>
